<svg xmlns="http://www.w3.org/2000/svg" xmlns:xlink="http://www.w3.org/1999/xlink" width="100" height="100" viewBox="0 0 100 100"><defs><style>.a{clip-path:url(#j);}.b{isolation:isolate;}.c,.e,.h{fill:#0a4769;}.c,.d,.e{stroke:#0a4769;}.c,.g{font-size:50px;font-family:SegoeUI, Segoe UI;}.d,.f,.g{fill:#168acd;}.d,.f{stroke-linecap:round;}.d,.e,.f,.h{stroke-width:3px;}.e,.h{stroke-linecap:square;}.f,.g,.h{stroke:#168acd;}.i{fill:#fff;}.j{filter:url(#g);}.k{filter:url(#e);}.l{filter:url(#c);}.m{filter:url(#a);}</style><filter id="a" x="47.5" y="11" width="41" height="73.5" filterUnits="userSpaceOnUse"><feOffset dx="1" dy="3" input="SourceAlpha"/><feGaussianBlur stdDeviation="0.5" result="b"/><feFlood flood-opacity="0.2"/><feComposite operator="in" in2="b"/><feComposite in="SourceGraphic"/></filter><filter id="c" x="77.024" y="46.122" width="15.952" height="7.5" filterUnits="userSpaceOnUse"><feOffset dx="1" dy="3" input="SourceAlpha"/><feGaussianBlur stdDeviation="0.5" result="d"/><feFlood flood-opacity="0.161"/><feComposite operator="in" in2="d"/><feComposite in="SourceGraphic"/></filter><filter id="e" x="7.666" y="46" width="15.688" height="7.5" filterUnits="userSpaceOnUse"><feOffset dx="1" dy="3" input="SourceAlpha"/><feGaussianBlur stdDeviation="0.5" result="f"/><feFlood flood-opacity="0.161"/><feComposite operator="in" in2="f"/><feComposite in="SourceGraphic"/></filter><filter id="g" x="13.5" y="11" width="41" height="73.5" filterUnits="userSpaceOnUse"><feOffset dx="1" dy="3" input="SourceAlpha"/><feGaussianBlur stdDeviation="0.5" result="h"/><feFlood flood-opacity="0.161"/><feComposite operator="in" in2="h"/><feComposite in="SourceGraphic"/></filter><clipPath id="j"><rect width="100" height="100"/></clipPath></defs><g id="i" class="a"><rect class="i" width="100" height="100"/><g class="b" transform="translate(1)"><g class="m" transform="matrix(1, 0, 0, 1, -1, 0)"><text class="c" transform="translate(49 66)"><tspan x="0" y="0">H</tspan></text></g><g class="l" transform="matrix(1, 0, 0, 1, -1, 0)"><path class="d" d="M505.069,254.986h9.952" transform="translate(-426.04 -207.36)"/></g><path class="e" d="M505.069,254.986h4.768" transform="translate(-454.483 -206.364)"/><g class="k" transform="matrix(1, 0, 0, 1, -1, 0)"><path class="f" d="M505.069,254.986h9.688" transform="translate(-495.4 -207.49)"/></g><g class="j" transform="matrix(1, 0, 0, 1, -1, 0)"><text class="g" transform="translate(15 66)"><tspan x="0" y="0">D</tspan></text></g><path class="h" d="M505.069,254.986H506.8" transform="translate(-458.8 -206.364)"/></g></g></svg>