<svg xmlns="http://www.w3.org/2000/svg" xmlns:xlink="http://www.w3.org/1999/xlink" width="250" height="250" viewBox="0 0 250 250"><defs><clipPath id="b"><rect width="250" height="250"/></clipPath></defs><g id="a" clip-path="url(#b)"><path d="M56,88,24,208H232L256,88Z" transform="translate(-8)" fill="none" stroke="#707070" stroke-linecap="round" stroke-linejoin="round" stroke-width="8"/><line x2="216" transform="translate(8 211)" fill="none" stroke="#707070" stroke-linecap="round" stroke-width="8"/><path d="M32,178.915V51.819a6.456,6.456,0,0,1,.224-1.5,2.87,2.87,0,0,1,.991-1.255,2.748,2.748,0,0,1,.9-.414A25.775,25.775,0,0,1,40,48c9.018-.383,80,0,80,0l1.512.416,1.331.944,1.073,1.245.515,1.545.515,3.219.472,2.876.6,2.447.411,1.228.254.508.366.625.371.518L128,64H232V88" transform="translate(-8)" fill="none" stroke="#707070" stroke-linecap="round" stroke-linejoin="round" stroke-width="9"/><g transform="translate(109 125)" fill="#707070" stroke="#707070" stroke-width="1"><circle cx="8" cy="8" r="8" stroke="none"/><circle cx="8" cy="8" r="7.5" fill="none"/></g><g transform="translate(168 125)" fill="#707070" stroke="#707070" stroke-width="1"><circle cx="8" cy="8" r="8" stroke="none"/><circle cx="8" cy="8" r="7.5" fill="none"/></g><path d="M132,169.677s18.617-21.961,41.406.829" transform="translate(-8)" fill="none" stroke="#707070" stroke-linecap="round" stroke-width="6"/></g></svg>